<?xml version="1.0" encoding="utf-8" standalone="no"?>
<!DOCTYPE svg PUBLIC "-//W3C//DTD SVG 1.1//EN"
  "http://www.w3.org/Graphics/SVG/1.1/DTD/svg11.dtd">
<!-- Created with matplotlib (https://matplotlib.org/) -->
<svg height="288pt" version="1.1" viewBox="0 0 432 288" width="432pt" xmlns="http://www.w3.org/2000/svg" xmlns:xlink="http://www.w3.org/1999/xlink">
 <metadata>
  <rdf:RDF xmlns:cc="http://creativecommons.org/ns#" xmlns:dc="http://purl.org/dc/elements/1.1/" xmlns:rdf="http://www.w3.org/1999/02/22-rdf-syntax-ns#">
   <cc:Work>
    <dc:type rdf:resource="http://purl.org/dc/dcmitype/StillImage"/>
    <dc:date>2020-12-04T01:15:30.893229</dc:date>
    <dc:format>image/svg+xml</dc:format>
    <dc:creator>
     <cc:Agent>
      <dc:title>Matplotlib v3.3.3, https://matplotlib.org/</dc:title>
     </cc:Agent>
    </dc:creator>
   </cc:Work>
  </rdf:RDF>
 </metadata>
 <defs>
  <style type="text/css">*{stroke-linecap:butt;stroke-linejoin:round;}</style>
 </defs>
 <g id="figure_1">
  <g id="patch_1">
   <path d="M 0 288 
L 432 288 
L 432 0 
L 0 0 
z
" style="fill:none;"/>
  </g>
  <g id="axes_1">
   <g id="patch_2">
    <path d="M 54 252 
L 388.8 252 
L 388.8 34.56 
L 54 34.56 
z
" style="fill:#ffffff;"/>
   </g>
   <g id="matplotlib.axis_1">
    <g id="xtick_1">
     <g id="line2d_1">
      <defs>
       <path d="M 0 0 
L 0 3.5 
" id="m75bb627301" style="stroke:#000000;stroke-width:0.8;"/>
      </defs>
      <g>
       <use style="stroke:#000000;stroke-width:0.8;" x="66.143802" xlink:href="#m75bb627301" y="252"/>
      </g>
     </g>
     <g id="text_1">
      <!-- 0 -->
      <g transform="translate(62.962552 266.598437)scale(0.1 -0.1)">
       <defs>
        <path d="M 31.78125 66.40625 
Q 24.171875 66.40625 20.328125 58.90625 
Q 16.5 51.421875 16.5 36.375 
Q 16.5 21.390625 20.328125 13.890625 
Q 24.171875 6.390625 31.78125 6.390625 
Q 39.453125 6.390625 43.28125 13.890625 
Q 47.125 21.390625 47.125 36.375 
Q 47.125 51.421875 43.28125 58.90625 
Q 39.453125 66.40625 31.78125 66.40625 
z
M 31.78125 74.21875 
Q 44.046875 74.21875 50.515625 64.515625 
Q 56.984375 54.828125 56.984375 36.375 
Q 56.984375 17.96875 50.515625 8.265625 
Q 44.046875 -1.421875 31.78125 -1.421875 
Q 19.53125 -1.421875 13.0625 8.265625 
Q 6.59375 17.96875 6.59375 36.375 
Q 6.59375 54.828125 13.0625 64.515625 
Q 19.53125 74.21875 31.78125 74.21875 
z
" id="DejaVuSans-48"/>
       </defs>
       <use xlink:href="#DejaVuSans-48"/>
      </g>
     </g>
    </g>
    <g id="xtick_2">
     <g id="line2d_2">
      <g>
       <use style="stroke:#000000;stroke-width:0.8;" x="127.631405" xlink:href="#m75bb627301" y="252"/>
      </g>
     </g>
     <g id="text_2">
      <!-- 20 -->
      <g transform="translate(121.268905 266.598437)scale(0.1 -0.1)">
       <defs>
        <path d="M 19.1875 8.296875 
L 53.609375 8.296875 
L 53.609375 0 
L 7.328125 0 
L 7.328125 8.296875 
Q 12.9375 14.109375 22.625 23.890625 
Q 32.328125 33.6875 34.8125 36.53125 
Q 39.546875 41.84375 41.421875 45.53125 
Q 43.3125 49.21875 43.3125 52.78125 
Q 43.3125 58.59375 39.234375 62.25 
Q 35.15625 65.921875 28.609375 65.921875 
Q 23.96875 65.921875 18.8125 64.3125 
Q 13.671875 62.703125 7.8125 59.421875 
L 7.8125 69.390625 
Q 13.765625 71.78125 18.9375 73 
Q 24.125 74.21875 28.421875 74.21875 
Q 39.75 74.21875 46.484375 68.546875 
Q 53.21875 62.890625 53.21875 53.421875 
Q 53.21875 48.921875 51.53125 44.890625 
Q 49.859375 40.875 45.40625 35.40625 
Q 44.1875 33.984375 37.640625 27.21875 
Q 31.109375 20.453125 19.1875 8.296875 
z
" id="DejaVuSans-50"/>
       </defs>
       <use xlink:href="#DejaVuSans-50"/>
       <use x="63.623047" xlink:href="#DejaVuSans-48"/>
      </g>
     </g>
    </g>
    <g id="xtick_3">
     <g id="line2d_3">
      <g>
       <use style="stroke:#000000;stroke-width:0.8;" x="189.119008" xlink:href="#m75bb627301" y="252"/>
      </g>
     </g>
     <g id="text_3">
      <!-- 40 -->
      <g transform="translate(182.756508 266.598437)scale(0.1 -0.1)">
       <defs>
        <path d="M 37.796875 64.3125 
L 12.890625 25.390625 
L 37.796875 25.390625 
z
M 35.203125 72.90625 
L 47.609375 72.90625 
L 47.609375 25.390625 
L 58.015625 25.390625 
L 58.015625 17.1875 
L 47.609375 17.1875 
L 47.609375 0 
L 37.796875 0 
L 37.796875 17.1875 
L 4.890625 17.1875 
L 4.890625 26.703125 
z
" id="DejaVuSans-52"/>
       </defs>
       <use xlink:href="#DejaVuSans-52"/>
       <use x="63.623047" xlink:href="#DejaVuSans-48"/>
      </g>
     </g>
    </g>
    <g id="xtick_4">
     <g id="line2d_4">
      <g>
       <use style="stroke:#000000;stroke-width:0.8;" x="250.606612" xlink:href="#m75bb627301" y="252"/>
      </g>
     </g>
     <g id="text_4">
      <!-- 60 -->
      <g transform="translate(244.244112 266.598437)scale(0.1 -0.1)">
       <defs>
        <path d="M 33.015625 40.375 
Q 26.375 40.375 22.484375 35.828125 
Q 18.609375 31.296875 18.609375 23.390625 
Q 18.609375 15.53125 22.484375 10.953125 
Q 26.375 6.390625 33.015625 6.390625 
Q 39.65625 6.390625 43.53125 10.953125 
Q 47.40625 15.53125 47.40625 23.390625 
Q 47.40625 31.296875 43.53125 35.828125 
Q 39.65625 40.375 33.015625 40.375 
z
M 52.59375 71.296875 
L 52.59375 62.3125 
Q 48.875 64.0625 45.09375 64.984375 
Q 41.3125 65.921875 37.59375 65.921875 
Q 27.828125 65.921875 22.671875 59.328125 
Q 17.53125 52.734375 16.796875 39.40625 
Q 19.671875 43.65625 24.015625 45.921875 
Q 28.375 48.1875 33.59375 48.1875 
Q 44.578125 48.1875 50.953125 41.515625 
Q 57.328125 34.859375 57.328125 23.390625 
Q 57.328125 12.15625 50.6875 5.359375 
Q 44.046875 -1.421875 33.015625 -1.421875 
Q 20.359375 -1.421875 13.671875 8.265625 
Q 6.984375 17.96875 6.984375 36.375 
Q 6.984375 53.65625 15.1875 63.9375 
Q 23.390625 74.21875 37.203125 74.21875 
Q 40.921875 74.21875 44.703125 73.484375 
Q 48.484375 72.75 52.59375 71.296875 
z
" id="DejaVuSans-54"/>
       </defs>
       <use xlink:href="#DejaVuSans-54"/>
       <use x="63.623047" xlink:href="#DejaVuSans-48"/>
      </g>
     </g>
    </g>
    <g id="xtick_5">
     <g id="line2d_5">
      <g>
       <use style="stroke:#000000;stroke-width:0.8;" x="312.094215" xlink:href="#m75bb627301" y="252"/>
      </g>
     </g>
     <g id="text_5">
      <!-- 80 -->
      <g transform="translate(305.731715 266.598437)scale(0.1 -0.1)">
       <defs>
        <path d="M 31.78125 34.625 
Q 24.75 34.625 20.71875 30.859375 
Q 16.703125 27.09375 16.703125 20.515625 
Q 16.703125 13.921875 20.71875 10.15625 
Q 24.75 6.390625 31.78125 6.390625 
Q 38.8125 6.390625 42.859375 10.171875 
Q 46.921875 13.96875 46.921875 20.515625 
Q 46.921875 27.09375 42.890625 30.859375 
Q 38.875 34.625 31.78125 34.625 
z
M 21.921875 38.8125 
Q 15.578125 40.375 12.03125 44.71875 
Q 8.5 49.078125 8.5 55.328125 
Q 8.5 64.0625 14.71875 69.140625 
Q 20.953125 74.21875 31.78125 74.21875 
Q 42.671875 74.21875 48.875 69.140625 
Q 55.078125 64.0625 55.078125 55.328125 
Q 55.078125 49.078125 51.53125 44.71875 
Q 48 40.375 41.703125 38.8125 
Q 48.828125 37.15625 52.796875 32.3125 
Q 56.78125 27.484375 56.78125 20.515625 
Q 56.78125 9.90625 50.3125 4.234375 
Q 43.84375 -1.421875 31.78125 -1.421875 
Q 19.734375 -1.421875 13.25 4.234375 
Q 6.78125 9.90625 6.78125 20.515625 
Q 6.78125 27.484375 10.78125 32.3125 
Q 14.796875 37.15625 21.921875 38.8125 
z
M 18.3125 54.390625 
Q 18.3125 48.734375 21.84375 45.5625 
Q 25.390625 42.390625 31.78125 42.390625 
Q 38.140625 42.390625 41.71875 45.5625 
Q 45.3125 48.734375 45.3125 54.390625 
Q 45.3125 60.0625 41.71875 63.234375 
Q 38.140625 66.40625 31.78125 66.40625 
Q 25.390625 66.40625 21.84375 63.234375 
Q 18.3125 60.0625 18.3125 54.390625 
z
" id="DejaVuSans-56"/>
       </defs>
       <use xlink:href="#DejaVuSans-56"/>
       <use x="63.623047" xlink:href="#DejaVuSans-48"/>
      </g>
     </g>
    </g>
    <g id="xtick_6">
     <g id="line2d_6">
      <g>
       <use style="stroke:#000000;stroke-width:0.8;" x="373.581818" xlink:href="#m75bb627301" y="252"/>
      </g>
     </g>
     <g id="text_6">
      <!-- 100 -->
      <g transform="translate(364.038068 266.598437)scale(0.1 -0.1)">
       <defs>
        <path d="M 12.40625 8.296875 
L 28.515625 8.296875 
L 28.515625 63.921875 
L 10.984375 60.40625 
L 10.984375 69.390625 
L 28.421875 72.90625 
L 38.28125 72.90625 
L 38.28125 8.296875 
L 54.390625 8.296875 
L 54.390625 0 
L 12.40625 0 
z
" id="DejaVuSans-49"/>
       </defs>
       <use xlink:href="#DejaVuSans-49"/>
       <use x="63.623047" xlink:href="#DejaVuSans-48"/>
       <use x="127.246094" xlink:href="#DejaVuSans-48"/>
      </g>
     </g>
    </g>
   </g>
   <g id="matplotlib.axis_2">
    <g id="ytick_1">
     <g id="line2d_7">
      <defs>
       <path d="M 0 0 
L -3.5 0 
" id="m697086a837" style="stroke:#000000;stroke-width:0.8;"/>
      </defs>
      <g>
       <use style="stroke:#000000;stroke-width:0.8;" x="54" xlink:href="#m697086a837" y="246.088128"/>
      </g>
     </g>
     <g id="text_7">
      <!-- 0 -->
      <g transform="translate(40.6375 249.887347)scale(0.1 -0.1)">
       <use xlink:href="#DejaVuSans-48"/>
      </g>
     </g>
    </g>
    <g id="ytick_2">
     <g id="line2d_8">
      <g>
       <use style="stroke:#000000;stroke-width:0.8;" x="54" xlink:href="#m697086a837" y="221.525678"/>
      </g>
     </g>
     <g id="text_8">
      <!-- 25 -->
      <g transform="translate(34.275 225.324897)scale(0.1 -0.1)">
       <defs>
        <path d="M 10.796875 72.90625 
L 49.515625 72.90625 
L 49.515625 64.59375 
L 19.828125 64.59375 
L 19.828125 46.734375 
Q 21.96875 47.46875 24.109375 47.828125 
Q 26.265625 48.1875 28.421875 48.1875 
Q 40.625 48.1875 47.75 41.5 
Q 54.890625 34.8125 54.890625 23.390625 
Q 54.890625 11.625 47.5625 5.09375 
Q 40.234375 -1.421875 26.90625 -1.421875 
Q 22.3125 -1.421875 17.546875 -0.640625 
Q 12.796875 0.140625 7.71875 1.703125 
L 7.71875 11.625 
Q 12.109375 9.234375 16.796875 8.0625 
Q 21.484375 6.890625 26.703125 6.890625 
Q 35.15625 6.890625 40.078125 11.328125 
Q 45.015625 15.765625 45.015625 23.390625 
Q 45.015625 31 40.078125 35.4375 
Q 35.15625 39.890625 26.703125 39.890625 
Q 22.75 39.890625 18.8125 39.015625 
Q 14.890625 38.140625 10.796875 36.28125 
z
" id="DejaVuSans-53"/>
       </defs>
       <use xlink:href="#DejaVuSans-50"/>
       <use x="63.623047" xlink:href="#DejaVuSans-53"/>
      </g>
     </g>
    </g>
    <g id="ytick_3">
     <g id="line2d_9">
      <g>
       <use style="stroke:#000000;stroke-width:0.8;" x="54" xlink:href="#m697086a837" y="196.963228"/>
      </g>
     </g>
     <g id="text_9">
      <!-- 50 -->
      <g transform="translate(34.275 200.762447)scale(0.1 -0.1)">
       <use xlink:href="#DejaVuSans-53"/>
       <use x="63.623047" xlink:href="#DejaVuSans-48"/>
      </g>
     </g>
    </g>
    <g id="ytick_4">
     <g id="line2d_10">
      <g>
       <use style="stroke:#000000;stroke-width:0.8;" x="54" xlink:href="#m697086a837" y="172.400778"/>
      </g>
     </g>
     <g id="text_10">
      <!-- 75 -->
      <g transform="translate(34.275 176.199997)scale(0.1 -0.1)">
       <defs>
        <path d="M 8.203125 72.90625 
L 55.078125 72.90625 
L 55.078125 68.703125 
L 28.609375 0 
L 18.3125 0 
L 43.21875 64.59375 
L 8.203125 64.59375 
z
" id="DejaVuSans-55"/>
       </defs>
       <use xlink:href="#DejaVuSans-55"/>
       <use x="63.623047" xlink:href="#DejaVuSans-53"/>
      </g>
     </g>
    </g>
    <g id="ytick_5">
     <g id="line2d_11">
      <g>
       <use style="stroke:#000000;stroke-width:0.8;" x="54" xlink:href="#m697086a837" y="147.838328"/>
      </g>
     </g>
     <g id="text_11">
      <!-- 100 -->
      <g transform="translate(27.9125 151.637547)scale(0.1 -0.1)">
       <use xlink:href="#DejaVuSans-49"/>
       <use x="63.623047" xlink:href="#DejaVuSans-48"/>
       <use x="127.246094" xlink:href="#DejaVuSans-48"/>
      </g>
     </g>
    </g>
    <g id="ytick_6">
     <g id="line2d_12">
      <g>
       <use style="stroke:#000000;stroke-width:0.8;" x="54" xlink:href="#m697086a837" y="123.275878"/>
      </g>
     </g>
     <g id="text_12">
      <!-- 125 -->
      <g transform="translate(27.9125 127.075097)scale(0.1 -0.1)">
       <use xlink:href="#DejaVuSans-49"/>
       <use x="63.623047" xlink:href="#DejaVuSans-50"/>
       <use x="127.246094" xlink:href="#DejaVuSans-53"/>
      </g>
     </g>
    </g>
    <g id="ytick_7">
     <g id="line2d_13">
      <g>
       <use style="stroke:#000000;stroke-width:0.8;" x="54" xlink:href="#m697086a837" y="98.713428"/>
      </g>
     </g>
     <g id="text_13">
      <!-- 150 -->
      <g transform="translate(27.9125 102.512647)scale(0.1 -0.1)">
       <use xlink:href="#DejaVuSans-49"/>
       <use x="63.623047" xlink:href="#DejaVuSans-53"/>
       <use x="127.246094" xlink:href="#DejaVuSans-48"/>
      </g>
     </g>
    </g>
    <g id="ytick_8">
     <g id="line2d_14">
      <g>
       <use style="stroke:#000000;stroke-width:0.8;" x="54" xlink:href="#m697086a837" y="74.150978"/>
      </g>
     </g>
     <g id="text_14">
      <!-- 175 -->
      <g transform="translate(27.9125 77.950197)scale(0.1 -0.1)">
       <use xlink:href="#DejaVuSans-49"/>
       <use x="63.623047" xlink:href="#DejaVuSans-55"/>
       <use x="127.246094" xlink:href="#DejaVuSans-53"/>
      </g>
     </g>
    </g>
    <g id="ytick_9">
     <g id="line2d_15">
      <g>
       <use style="stroke:#000000;stroke-width:0.8;" x="54" xlink:href="#m697086a837" y="49.588528"/>
      </g>
     </g>
     <g id="text_15">
      <!-- 200 -->
      <g transform="translate(27.9125 53.387747)scale(0.1 -0.1)">
       <use xlink:href="#DejaVuSans-50"/>
       <use x="63.623047" xlink:href="#DejaVuSans-48"/>
       <use x="127.246094" xlink:href="#DejaVuSans-48"/>
      </g>
     </g>
    </g>
   </g>
   <g id="line2d_16">
    <path clip-path="url(#p211479097d)" d="M 69.218182 46.142589 
L 72.292562 46.547501 
L 75.366942 47.217766 
L 78.441322 48.209229 
L 81.515702 49.574871 
L 84.590083 51.420038 
L 87.664463 53.983189 
L 90.738843 57.292493 
L 93.813223 61.366256 
L 96.887603 66.318909 
L 99.961983 72.232472 
L 103.036364 79.2043 
L 106.110744 87.279866 
L 109.185124 96.518954 
L 112.259504 106.866995 
L 115.333884 118.28684 
L 118.408264 130.655692 
L 121.482645 143.718758 
L 124.557025 157.219943 
L 127.631405 170.752992 
L 130.705785 183.855757 
L 133.780165 196.05504 
L 136.854545 206.788212 
L 139.928926 215.857082 
L 143.003306 223.476348 
L 146.077686 229.570351 
L 149.152066 233.946833 
L 152.226446 236.855407 
L 155.300826 238.876037 
L 158.375207 240.170251 
L 161.449587 241.024539 
L 164.523967 241.581663 
L 167.598347 241.90433 
L 170.672727 242.057314 
L 173.747107 242.084797 
L 176.821488 242.093184 
L 179.895868 242.104091 
L 182.970248 242.067793 
L 186.044628 242.108365 
L 189.119008 242.116364 
L 192.193388 242.111065 
L 195.267769 242.091697 
L 198.342149 242.114364 
L 201.416529 242.102117 
L 204.490909 242.091602 
L 207.565289 242.096522 
L 210.639669 242.114127 
L 213.71405 242.098045 
L 216.78843 242.093739 
L 219.86281 242.099765 
L 222.93719 242.099261 
L 226.01157 242.110429 
L 229.08595 242.095734 
L 232.160331 242.09026 
L 235.234711 242.111956 
L 238.309091 242.10157 
L 241.383471 242.083599 
L 244.457851 242.098196 
L 247.532231 242.102722 
L 250.606612 242.088851 
L 253.680992 242.100441 
L 256.755372 242.111903 
L 259.829752 242.099418 
L 262.904132 242.102098 
L 265.978512 242.092338 
L 269.052893 242.107847 
L 272.127273 242.097163 
L 275.201653 242.099615 
L 278.276033 242.089197 
L 281.350413 242.098559 
L 284.424793 242.105568 
L 287.499174 242.098167 
L 290.573554 242.102199 
L 293.647934 242.09526 
L 296.722314 242.103577 
L 299.796694 242.108225 
L 302.871074 242.114591 
L 305.945455 242.093911 
L 309.019835 242.092957 
L 312.094215 242.11156 
L 315.168595 242.10996 
L 318.242975 242.093888 
L 321.317355 242.096021 
L 324.391736 242.102471 
L 327.466116 242.099407 
L 330.540496 242.096611 
L 333.614876 242.094209 
L 336.689256 242.094538 
L 339.763636 242.104652 
L 342.838017 242.105995 
L 345.912397 242.107996 
L 348.986777 242.083599 
L 352.061157 242.10507 
L 355.135537 242.097783 
L 358.209917 242.095469 
L 361.284298 242.091264 
L 364.358678 242.109246 
L 367.433058 242.097897 
L 370.507438 242.090382 
L 373.581818 242.111014 
" style="fill:none;stroke:#003791;stroke-linecap:square;stroke-width:1.5;"/>
   </g>
   <g id="line2d_17">
    <path clip-path="url(#p211479097d)" d="M 69.218182 44.443636 
L 72.292562 44.976727 
L 75.366942 45.817014 
L 78.441322 47.004584 
L 81.515702 48.618263 
L 84.590083 50.792919 
L 87.664463 53.846209 
L 90.738843 57.57999 
L 93.813223 62.125632 
L 96.887603 67.644208 
L 99.961983 74.171457 
L 103.036364 81.812007 
L 106.110744 90.573654 
L 109.185124 100.517818 
L 112.259504 111.545914 
L 115.333884 123.613934 
L 118.408264 136.502054 
L 121.482645 149.929585 
L 124.557025 163.618825 
L 127.631405 177.075649 
L 130.705785 189.786766 
L 133.780165 201.355025 
L 136.854545 211.167049 
L 139.928926 219.408503 
L 143.003306 226.289703 
L 146.077686 231.492808 
L 149.152066 235.029842 
L 152.226446 237.554997 
L 155.300826 239.219598 
L 158.375207 240.34048 
L 161.449587 241.082086 
L 164.523967 241.579196 
L 167.598347 241.836866 
L 170.672727 241.958016 
L 173.747107 242.004493 
L 176.821488 241.995131 
L 179.895868 242.013363 
L 182.970248 241.998288 
L 186.044628 241.999007 
L 189.119008 241.978287 
L 192.193388 242.01179 
L 195.267769 241.970854 
L 198.342149 241.952993 
L 201.416529 242.008328 
L 204.490909 241.978781 
L 207.565289 241.975401 
L 210.639669 242.002664 
L 213.71405 241.98876 
L 216.78843 242.004323 
L 219.86281 241.95921 
L 222.93719 241.995684 
L 226.01157 241.972226 
L 229.08595 242.011275 
L 232.160331 241.967395 
L 235.234711 242.003638 
L 238.309091 241.975844 
L 241.383471 242.001822 
L 244.457851 241.999459 
L 247.532231 242.012475 
L 250.606612 241.972481 
L 253.680992 242.020279 
L 256.755372 242.005613 
L 259.829752 241.967977 
L 262.904132 242.00183 
L 265.978512 242.014758 
L 269.052893 242.008024 
L 272.127273 241.997418 
L 275.201653 242.017377 
L 278.276033 241.999431 
L 281.350413 242.009982 
L 284.424793 241.912998 
L 287.499174 241.931876 
L 290.573554 242.019216 
L 293.647934 241.994381 
L 296.722314 242.007529 
L 299.796694 242.013075 
L 302.871074 241.979597 
L 305.945455 241.994283 
L 309.019835 241.987377 
L 312.094215 241.992119 
L 315.168595 242.004975 
L 318.242975 242.000298 
L 321.317355 241.942283 
L 324.391736 242.007841 
L 327.466116 242.00198 
L 330.540496 242.005111 
L 333.614876 242.003101 
L 336.689256 242.010358 
L 339.763636 242.007574 
L 342.838017 242.001364 
L 345.912397 241.986115 
L 348.986777 241.989082 
L 352.061157 242.003197 
L 355.135537 242.01538 
L 358.209917 242.005087 
L 361.284298 241.988806 
L 364.358678 241.992682 
L 367.433058 242.000038 
L 370.507438 241.987209 
L 373.581818 242.005983 
" style="fill:none;stroke:#003791;stroke-linecap:square;stroke-opacity:0.564706;stroke-width:1.5;"/>
   </g>
   <g id="patch_3">
    <path d="M 54 252 
L 54 34.56 
" style="fill:none;stroke:#000000;stroke-linecap:square;stroke-linejoin:miter;stroke-width:0.8;"/>
   </g>
   <g id="patch_4">
    <path d="M 388.8 252 
L 388.8 34.56 
" style="fill:none;stroke:#000000;stroke-linecap:square;stroke-linejoin:miter;stroke-width:0.8;"/>
   </g>
   <g id="patch_5">
    <path d="M 54 252 
L 388.8 252 
" style="fill:none;stroke:#000000;stroke-linecap:square;stroke-linejoin:miter;stroke-width:0.8;"/>
   </g>
   <g id="patch_6">
    <path d="M 54 34.56 
L 388.8 34.56 
" style="fill:none;stroke:#000000;stroke-linecap:square;stroke-linejoin:miter;stroke-width:0.8;"/>
   </g>
   <g id="text_16">
    <!-- Embedding Training Performance -->
    <g transform="translate(121.86375 28.56)scale(0.12 -0.12)">
     <defs>
      <path d="M 9.8125 72.90625 
L 55.90625 72.90625 
L 55.90625 64.59375 
L 19.671875 64.59375 
L 19.671875 43.015625 
L 54.390625 43.015625 
L 54.390625 34.71875 
L 19.671875 34.71875 
L 19.671875 8.296875 
L 56.78125 8.296875 
L 56.78125 0 
L 9.8125 0 
z
" id="DejaVuSans-69"/>
      <path d="M 52 44.1875 
Q 55.375 50.25 60.0625 53.125 
Q 64.75 56 71.09375 56 
Q 79.640625 56 84.28125 50.015625 
Q 88.921875 44.046875 88.921875 33.015625 
L 88.921875 0 
L 79.890625 0 
L 79.890625 32.71875 
Q 79.890625 40.578125 77.09375 44.375 
Q 74.3125 48.1875 68.609375 48.1875 
Q 61.625 48.1875 57.5625 43.546875 
Q 53.515625 38.921875 53.515625 30.90625 
L 53.515625 0 
L 44.484375 0 
L 44.484375 32.71875 
Q 44.484375 40.625 41.703125 44.40625 
Q 38.921875 48.1875 33.109375 48.1875 
Q 26.21875 48.1875 22.15625 43.53125 
Q 18.109375 38.875 18.109375 30.90625 
L 18.109375 0 
L 9.078125 0 
L 9.078125 54.6875 
L 18.109375 54.6875 
L 18.109375 46.1875 
Q 21.1875 51.21875 25.484375 53.609375 
Q 29.78125 56 35.6875 56 
Q 41.65625 56 45.828125 52.96875 
Q 50 49.953125 52 44.1875 
z
" id="DejaVuSans-109"/>
      <path d="M 48.6875 27.296875 
Q 48.6875 37.203125 44.609375 42.84375 
Q 40.53125 48.484375 33.40625 48.484375 
Q 26.265625 48.484375 22.1875 42.84375 
Q 18.109375 37.203125 18.109375 27.296875 
Q 18.109375 17.390625 22.1875 11.75 
Q 26.265625 6.109375 33.40625 6.109375 
Q 40.53125 6.109375 44.609375 11.75 
Q 48.6875 17.390625 48.6875 27.296875 
z
M 18.109375 46.390625 
Q 20.953125 51.265625 25.265625 53.625 
Q 29.59375 56 35.59375 56 
Q 45.5625 56 51.78125 48.09375 
Q 58.015625 40.1875 58.015625 27.296875 
Q 58.015625 14.40625 51.78125 6.484375 
Q 45.5625 -1.421875 35.59375 -1.421875 
Q 29.59375 -1.421875 25.265625 0.953125 
Q 20.953125 3.328125 18.109375 8.203125 
L 18.109375 0 
L 9.078125 0 
L 9.078125 75.984375 
L 18.109375 75.984375 
z
" id="DejaVuSans-98"/>
      <path d="M 56.203125 29.59375 
L 56.203125 25.203125 
L 14.890625 25.203125 
Q 15.484375 15.921875 20.484375 11.0625 
Q 25.484375 6.203125 34.421875 6.203125 
Q 39.59375 6.203125 44.453125 7.46875 
Q 49.3125 8.734375 54.109375 11.28125 
L 54.109375 2.78125 
Q 49.265625 0.734375 44.1875 -0.34375 
Q 39.109375 -1.421875 33.890625 -1.421875 
Q 20.796875 -1.421875 13.15625 6.1875 
Q 5.515625 13.8125 5.515625 26.8125 
Q 5.515625 40.234375 12.765625 48.109375 
Q 20.015625 56 32.328125 56 
Q 43.359375 56 49.78125 48.890625 
Q 56.203125 41.796875 56.203125 29.59375 
z
M 47.21875 32.234375 
Q 47.125 39.59375 43.09375 43.984375 
Q 39.0625 48.390625 32.421875 48.390625 
Q 24.90625 48.390625 20.390625 44.140625 
Q 15.875 39.890625 15.1875 32.171875 
z
" id="DejaVuSans-101"/>
      <path d="M 45.40625 46.390625 
L 45.40625 75.984375 
L 54.390625 75.984375 
L 54.390625 0 
L 45.40625 0 
L 45.40625 8.203125 
Q 42.578125 3.328125 38.25 0.953125 
Q 33.9375 -1.421875 27.875 -1.421875 
Q 17.96875 -1.421875 11.734375 6.484375 
Q 5.515625 14.40625 5.515625 27.296875 
Q 5.515625 40.1875 11.734375 48.09375 
Q 17.96875 56 27.875 56 
Q 33.9375 56 38.25 53.625 
Q 42.578125 51.265625 45.40625 46.390625 
z
M 14.796875 27.296875 
Q 14.796875 17.390625 18.875 11.75 
Q 22.953125 6.109375 30.078125 6.109375 
Q 37.203125 6.109375 41.296875 11.75 
Q 45.40625 17.390625 45.40625 27.296875 
Q 45.40625 37.203125 41.296875 42.84375 
Q 37.203125 48.484375 30.078125 48.484375 
Q 22.953125 48.484375 18.875 42.84375 
Q 14.796875 37.203125 14.796875 27.296875 
z
" id="DejaVuSans-100"/>
      <path d="M 9.421875 54.6875 
L 18.40625 54.6875 
L 18.40625 0 
L 9.421875 0 
z
M 9.421875 75.984375 
L 18.40625 75.984375 
L 18.40625 64.59375 
L 9.421875 64.59375 
z
" id="DejaVuSans-105"/>
      <path d="M 54.890625 33.015625 
L 54.890625 0 
L 45.90625 0 
L 45.90625 32.71875 
Q 45.90625 40.484375 42.875 44.328125 
Q 39.84375 48.1875 33.796875 48.1875 
Q 26.515625 48.1875 22.3125 43.546875 
Q 18.109375 38.921875 18.109375 30.90625 
L 18.109375 0 
L 9.078125 0 
L 9.078125 54.6875 
L 18.109375 54.6875 
L 18.109375 46.1875 
Q 21.34375 51.125 25.703125 53.5625 
Q 30.078125 56 35.796875 56 
Q 45.21875 56 50.046875 50.171875 
Q 54.890625 44.34375 54.890625 33.015625 
z
" id="DejaVuSans-110"/>
      <path d="M 45.40625 27.984375 
Q 45.40625 37.75 41.375 43.109375 
Q 37.359375 48.484375 30.078125 48.484375 
Q 22.859375 48.484375 18.828125 43.109375 
Q 14.796875 37.75 14.796875 27.984375 
Q 14.796875 18.265625 18.828125 12.890625 
Q 22.859375 7.515625 30.078125 7.515625 
Q 37.359375 7.515625 41.375 12.890625 
Q 45.40625 18.265625 45.40625 27.984375 
z
M 54.390625 6.78125 
Q 54.390625 -7.171875 48.1875 -13.984375 
Q 42 -20.796875 29.203125 -20.796875 
Q 24.46875 -20.796875 20.265625 -20.09375 
Q 16.0625 -19.390625 12.109375 -17.921875 
L 12.109375 -9.1875 
Q 16.0625 -11.328125 19.921875 -12.34375 
Q 23.78125 -13.375 27.78125 -13.375 
Q 36.625 -13.375 41.015625 -8.765625 
Q 45.40625 -4.15625 45.40625 5.171875 
L 45.40625 9.625 
Q 42.625 4.78125 38.28125 2.390625 
Q 33.9375 0 27.875 0 
Q 17.828125 0 11.671875 7.65625 
Q 5.515625 15.328125 5.515625 27.984375 
Q 5.515625 40.671875 11.671875 48.328125 
Q 17.828125 56 27.875 56 
Q 33.9375 56 38.28125 53.609375 
Q 42.625 51.21875 45.40625 46.390625 
L 45.40625 54.6875 
L 54.390625 54.6875 
z
" id="DejaVuSans-103"/>
      <path id="DejaVuSans-32"/>
      <path d="M -0.296875 72.90625 
L 61.375 72.90625 
L 61.375 64.59375 
L 35.5 64.59375 
L 35.5 0 
L 25.59375 0 
L 25.59375 64.59375 
L -0.296875 64.59375 
z
" id="DejaVuSans-84"/>
      <path d="M 41.109375 46.296875 
Q 39.59375 47.171875 37.8125 47.578125 
Q 36.03125 48 33.890625 48 
Q 26.265625 48 22.1875 43.046875 
Q 18.109375 38.09375 18.109375 28.8125 
L 18.109375 0 
L 9.078125 0 
L 9.078125 54.6875 
L 18.109375 54.6875 
L 18.109375 46.1875 
Q 20.953125 51.171875 25.484375 53.578125 
Q 30.03125 56 36.53125 56 
Q 37.453125 56 38.578125 55.875 
Q 39.703125 55.765625 41.0625 55.515625 
z
" id="DejaVuSans-114"/>
      <path d="M 34.28125 27.484375 
Q 23.390625 27.484375 19.1875 25 
Q 14.984375 22.515625 14.984375 16.5 
Q 14.984375 11.71875 18.140625 8.90625 
Q 21.296875 6.109375 26.703125 6.109375 
Q 34.1875 6.109375 38.703125 11.40625 
Q 43.21875 16.703125 43.21875 25.484375 
L 43.21875 27.484375 
z
M 52.203125 31.203125 
L 52.203125 0 
L 43.21875 0 
L 43.21875 8.296875 
Q 40.140625 3.328125 35.546875 0.953125 
Q 30.953125 -1.421875 24.3125 -1.421875 
Q 15.921875 -1.421875 10.953125 3.296875 
Q 6 8.015625 6 15.921875 
Q 6 25.140625 12.171875 29.828125 
Q 18.359375 34.515625 30.609375 34.515625 
L 43.21875 34.515625 
L 43.21875 35.40625 
Q 43.21875 41.609375 39.140625 45 
Q 35.0625 48.390625 27.6875 48.390625 
Q 23 48.390625 18.546875 47.265625 
Q 14.109375 46.140625 10.015625 43.890625 
L 10.015625 52.203125 
Q 14.9375 54.109375 19.578125 55.046875 
Q 24.21875 56 28.609375 56 
Q 40.484375 56 46.34375 49.84375 
Q 52.203125 43.703125 52.203125 31.203125 
z
" id="DejaVuSans-97"/>
      <path d="M 19.671875 64.796875 
L 19.671875 37.40625 
L 32.078125 37.40625 
Q 38.96875 37.40625 42.71875 40.96875 
Q 46.484375 44.53125 46.484375 51.125 
Q 46.484375 57.671875 42.71875 61.234375 
Q 38.96875 64.796875 32.078125 64.796875 
z
M 9.8125 72.90625 
L 32.078125 72.90625 
Q 44.34375 72.90625 50.609375 67.359375 
Q 56.890625 61.8125 56.890625 51.125 
Q 56.890625 40.328125 50.609375 34.8125 
Q 44.34375 29.296875 32.078125 29.296875 
L 19.671875 29.296875 
L 19.671875 0 
L 9.8125 0 
z
" id="DejaVuSans-80"/>
      <path d="M 37.109375 75.984375 
L 37.109375 68.5 
L 28.515625 68.5 
Q 23.6875 68.5 21.796875 66.546875 
Q 19.921875 64.59375 19.921875 59.515625 
L 19.921875 54.6875 
L 34.71875 54.6875 
L 34.71875 47.703125 
L 19.921875 47.703125 
L 19.921875 0 
L 10.890625 0 
L 10.890625 47.703125 
L 2.296875 47.703125 
L 2.296875 54.6875 
L 10.890625 54.6875 
L 10.890625 58.5 
Q 10.890625 67.625 15.140625 71.796875 
Q 19.390625 75.984375 28.609375 75.984375 
z
" id="DejaVuSans-102"/>
      <path d="M 30.609375 48.390625 
Q 23.390625 48.390625 19.1875 42.75 
Q 14.984375 37.109375 14.984375 27.296875 
Q 14.984375 17.484375 19.15625 11.84375 
Q 23.34375 6.203125 30.609375 6.203125 
Q 37.796875 6.203125 41.984375 11.859375 
Q 46.1875 17.53125 46.1875 27.296875 
Q 46.1875 37.015625 41.984375 42.703125 
Q 37.796875 48.390625 30.609375 48.390625 
z
M 30.609375 56 
Q 42.328125 56 49.015625 48.375 
Q 55.71875 40.765625 55.71875 27.296875 
Q 55.71875 13.875 49.015625 6.21875 
Q 42.328125 -1.421875 30.609375 -1.421875 
Q 18.84375 -1.421875 12.171875 6.21875 
Q 5.515625 13.875 5.515625 27.296875 
Q 5.515625 40.765625 12.171875 48.375 
Q 18.84375 56 30.609375 56 
z
" id="DejaVuSans-111"/>
      <path d="M 48.78125 52.59375 
L 48.78125 44.1875 
Q 44.96875 46.296875 41.140625 47.34375 
Q 37.3125 48.390625 33.40625 48.390625 
Q 24.65625 48.390625 19.8125 42.84375 
Q 14.984375 37.3125 14.984375 27.296875 
Q 14.984375 17.28125 19.8125 11.734375 
Q 24.65625 6.203125 33.40625 6.203125 
Q 37.3125 6.203125 41.140625 7.25 
Q 44.96875 8.296875 48.78125 10.40625 
L 48.78125 2.09375 
Q 45.015625 0.34375 40.984375 -0.53125 
Q 36.96875 -1.421875 32.421875 -1.421875 
Q 20.0625 -1.421875 12.78125 6.34375 
Q 5.515625 14.109375 5.515625 27.296875 
Q 5.515625 40.671875 12.859375 48.328125 
Q 20.21875 56 33.015625 56 
Q 37.15625 56 41.109375 55.140625 
Q 45.0625 54.296875 48.78125 52.59375 
z
" id="DejaVuSans-99"/>
     </defs>
     <use xlink:href="#DejaVuSans-69"/>
     <use x="63.183594" xlink:href="#DejaVuSans-109"/>
     <use x="160.595703" xlink:href="#DejaVuSans-98"/>
     <use x="224.072266" xlink:href="#DejaVuSans-101"/>
     <use x="285.595703" xlink:href="#DejaVuSans-100"/>
     <use x="349.072266" xlink:href="#DejaVuSans-100"/>
     <use x="412.548828" xlink:href="#DejaVuSans-105"/>
     <use x="440.332031" xlink:href="#DejaVuSans-110"/>
     <use x="503.710938" xlink:href="#DejaVuSans-103"/>
     <use x="567.1875" xlink:href="#DejaVuSans-32"/>
     <use x="598.974609" xlink:href="#DejaVuSans-84"/>
     <use x="645.308594" xlink:href="#DejaVuSans-114"/>
     <use x="686.421875" xlink:href="#DejaVuSans-97"/>
     <use x="747.701172" xlink:href="#DejaVuSans-105"/>
     <use x="775.484375" xlink:href="#DejaVuSans-110"/>
     <use x="838.863281" xlink:href="#DejaVuSans-105"/>
     <use x="866.646484" xlink:href="#DejaVuSans-110"/>
     <use x="930.025391" xlink:href="#DejaVuSans-103"/>
     <use x="993.501953" xlink:href="#DejaVuSans-32"/>
     <use x="1025.289062" xlink:href="#DejaVuSans-80"/>
     <use x="1081.966797" xlink:href="#DejaVuSans-101"/>
     <use x="1143.490234" xlink:href="#DejaVuSans-114"/>
     <use x="1184.603516" xlink:href="#DejaVuSans-102"/>
     <use x="1219.808594" xlink:href="#DejaVuSans-111"/>
     <use x="1280.990234" xlink:href="#DejaVuSans-114"/>
     <use x="1320.353516" xlink:href="#DejaVuSans-109"/>
     <use x="1417.765625" xlink:href="#DejaVuSans-97"/>
     <use x="1479.044922" xlink:href="#DejaVuSans-110"/>
     <use x="1542.423828" xlink:href="#DejaVuSans-99"/>
     <use x="1597.404297" xlink:href="#DejaVuSans-101"/>
    </g>
   </g>
   <g id="legend_1">
    <g id="patch_7">
     <path d="M 275.30625 71.91625 
L 381.8 71.91625 
Q 383.8 71.91625 383.8 69.91625 
L 383.8 41.56 
Q 383.8 39.56 381.8 39.56 
L 275.30625 39.56 
Q 273.30625 39.56 273.30625 41.56 
L 273.30625 69.91625 
Q 273.30625 71.91625 275.30625 71.91625 
z
" style="fill:#ffffff;opacity:0.8;stroke:#cccccc;stroke-linejoin:miter;"/>
    </g>
    <g id="line2d_18">
     <path d="M 277.30625 47.658437 
L 297.30625 47.658437 
" style="fill:none;stroke:#003791;stroke-linecap:square;stroke-width:1.5;"/>
    </g>
    <g id="line2d_19"/>
    <g id="text_17">
     <!-- Loss -->
     <g transform="translate(305.30625 51.158437)scale(0.1 -0.1)">
      <defs>
       <path d="M 9.8125 72.90625 
L 19.671875 72.90625 
L 19.671875 8.296875 
L 55.171875 8.296875 
L 55.171875 0 
L 9.8125 0 
z
" id="DejaVuSans-76"/>
       <path d="M 44.28125 53.078125 
L 44.28125 44.578125 
Q 40.484375 46.53125 36.375 47.5 
Q 32.28125 48.484375 27.875 48.484375 
Q 21.1875 48.484375 17.84375 46.4375 
Q 14.5 44.390625 14.5 40.28125 
Q 14.5 37.15625 16.890625 35.375 
Q 19.28125 33.59375 26.515625 31.984375 
L 29.59375 31.296875 
Q 39.15625 29.25 43.1875 25.515625 
Q 47.21875 21.78125 47.21875 15.09375 
Q 47.21875 7.46875 41.1875 3.015625 
Q 35.15625 -1.421875 24.609375 -1.421875 
Q 20.21875 -1.421875 15.453125 -0.5625 
Q 10.6875 0.296875 5.421875 2 
L 5.421875 11.28125 
Q 10.40625 8.6875 15.234375 7.390625 
Q 20.0625 6.109375 24.8125 6.109375 
Q 31.15625 6.109375 34.5625 8.28125 
Q 37.984375 10.453125 37.984375 14.40625 
Q 37.984375 18.0625 35.515625 20.015625 
Q 33.0625 21.96875 24.703125 23.78125 
L 21.578125 24.515625 
Q 13.234375 26.265625 9.515625 29.90625 
Q 5.8125 33.546875 5.8125 39.890625 
Q 5.8125 47.609375 11.28125 51.796875 
Q 16.75 56 26.8125 56 
Q 31.78125 56 36.171875 55.265625 
Q 40.578125 54.546875 44.28125 53.078125 
z
" id="DejaVuSans-115"/>
      </defs>
      <use xlink:href="#DejaVuSans-76"/>
      <use x="53.962891" xlink:href="#DejaVuSans-111"/>
      <use x="115.144531" xlink:href="#DejaVuSans-115"/>
      <use x="167.244141" xlink:href="#DejaVuSans-115"/>
     </g>
    </g>
    <g id="line2d_20">
     <path d="M 277.30625 62.336562 
L 297.30625 62.336562 
" style="fill:none;stroke:#003791;stroke-linecap:square;stroke-opacity:0.564706;stroke-width:1.5;"/>
    </g>
    <g id="line2d_21"/>
    <g id="text_18">
     <!-- Validation Loss -->
     <g transform="translate(305.30625 65.836562)scale(0.1 -0.1)">
      <defs>
       <path d="M 28.609375 0 
L 0.78125 72.90625 
L 11.078125 72.90625 
L 34.1875 11.53125 
L 57.328125 72.90625 
L 67.578125 72.90625 
L 39.796875 0 
z
" id="DejaVuSans-86"/>
       <path d="M 9.421875 75.984375 
L 18.40625 75.984375 
L 18.40625 0 
L 9.421875 0 
z
" id="DejaVuSans-108"/>
       <path d="M 18.3125 70.21875 
L 18.3125 54.6875 
L 36.8125 54.6875 
L 36.8125 47.703125 
L 18.3125 47.703125 
L 18.3125 18.015625 
Q 18.3125 11.328125 20.140625 9.421875 
Q 21.96875 7.515625 27.59375 7.515625 
L 36.8125 7.515625 
L 36.8125 0 
L 27.59375 0 
Q 17.1875 0 13.234375 3.875 
Q 9.28125 7.765625 9.28125 18.015625 
L 9.28125 47.703125 
L 2.6875 47.703125 
L 2.6875 54.6875 
L 9.28125 54.6875 
L 9.28125 70.21875 
z
" id="DejaVuSans-116"/>
      </defs>
      <use xlink:href="#DejaVuSans-86"/>
      <use x="60.658203" xlink:href="#DejaVuSans-97"/>
      <use x="121.9375" xlink:href="#DejaVuSans-108"/>
      <use x="149.720703" xlink:href="#DejaVuSans-105"/>
      <use x="177.503906" xlink:href="#DejaVuSans-100"/>
      <use x="240.980469" xlink:href="#DejaVuSans-97"/>
      <use x="302.259766" xlink:href="#DejaVuSans-116"/>
      <use x="341.46875" xlink:href="#DejaVuSans-105"/>
      <use x="369.251953" xlink:href="#DejaVuSans-111"/>
      <use x="430.433594" xlink:href="#DejaVuSans-110"/>
      <use x="493.8125" xlink:href="#DejaVuSans-32"/>
      <use x="525.599609" xlink:href="#DejaVuSans-76"/>
      <use x="579.5625" xlink:href="#DejaVuSans-111"/>
      <use x="640.744141" xlink:href="#DejaVuSans-115"/>
      <use x="692.84375" xlink:href="#DejaVuSans-115"/>
     </g>
    </g>
   </g>
  </g>
 </g>
 <defs>
  <clipPath id="p211479097d">
   <rect height="217.44" width="334.8" x="54" y="34.56"/>
  </clipPath>
 </defs>
</svg>
